/* XPM */
static char *result[] = {
/* columns rows colors chars-per-pixel */
"64 64 4 1 ",
"  c black",
". c #904611",
"X c #8A7019",
"o c #4874EC",
/* pixels */
"oooooooooooooooooooooooooooooooooooooooooooooooooooooooooooooooo",
"oooooooooooooooooooooooooooooooooooooooooooooooooooooooooooooooo",
"oooooooooooooooooooooooooooooooooooooooooooooooooooooooooooooooo",
"oooooooooooooooooooooooooooooooooooooooooooooooooooooooooooooooo",
"ooooooooooooooooooooXXXXXXXXXXXXXXXX        oooooooooooooooooooo",
"ooooooooooooooooooooXXXXXXXXXXXXXXXX        oooooooooooooooooooo",
"ooooooooooooooooooooXXXXXXXXXXXXXXXX        oooooooooooooooooooo",
"ooooooooooooooooooooXXXXXXXXXXXXXXXX        oooooooooooooooooooo",
"ooooooooooooooooXXXXXXXXXXXXXXXXXXXXXXXX        oooooooooooooooo",
"ooooooooooooooooXXXXXXXXXXXXXXXXXXXXXXXX        oooooooooooooooo",
"ooooooooooooooooXXXXXXXXXXXXXXXXXXXXXXXX        oooooooooooooooo",
"ooooooooooooooooXXXXXXXXXXXXXXXXXXXXXXXX        oooooooooooooooo",
"ooooooooooooXXXXXXXXXXXX........XXXXXXXX        oooooooooooooooo",
"ooooooooooooXXXXXXXXXXXX........XXXXXXXX        oooooooooooooooo",
"ooooooooooooXXXXXXXXXXXX........XXXXXXXX        oooooooooooooooo",
"ooooooooooooXXXXXXXXXXXX........XXXXXXXX        oooooooooooooooo",
"ooooooooooooXXXXXXXX....XXXXXXXX    XXXXXXXX        oooooooooooo",
"ooooooooooooXXXXXXXX....XXXXXXXX    XXXXXXXX        oooooooooooo",
"ooooooooooooXXXXXXXX....XXXXXXXX    XXXXXXXX        oooooooooooo",
"ooooooooooooXXXXXXXX....XXXXXXXX    XXXXXXXX        oooooooooooo",
"ooooooooooooXXXXXXXX....XXXXXXXX    XXXXXXXX        oooooooooooo",
"ooooooooooooXXXXXXXX....XXXXXXXX    XXXXXXXX        oooooooooooo",
"ooooooooooooXXXXXXXX....XXXXXXXX    XXXXXXXX        oooooooooooo",
"ooooooooooooXXXXXXXX....XXXXXXXX    XXXXXXXX        oooooooooooo",
"ooooooooooooXXXXXXXX....XXXXXXXX    XXXXXXXX        oooooooooooo",
"ooooooooooooXXXXXXXX....XXXXXXXX    XXXXXXXX        oooooooooooo",
"ooooooooooooXXXXXXXX....XXXXXXXX    XXXXXXXX        oooooooooooo",
"ooooooooooooXXXXXXXX....XXXXXXXX    XXXXXXXX        oooooooooooo",
"ooooooooooooXXXXXXXX....XXXXXXXX    XXXXXXXX        oooooooooooo",
"ooooooooooooXXXXXXXX....XXXXXXXX    XXXXXXXX        oooooooooooo",
"ooooooooooooXXXXXXXX....XXXXXXXX    XXXXXXXX        oooooooooooo",
"ooooooooooooXXXXXXXX....XXXXXXXX    XXXXXXXX        oooooooooooo",
"ooooooooooooXXXXXXXX....XXXXXXXX    XXXXXXXX        oooooooooooo",
"ooooooooooooXXXXXXXX....XXXXXXXX    XXXXXXXX        oooooooooooo",
"ooooooooooooXXXXXXXX....XXXXXXXX    XXXXXXXX        oooooooooooo",
"ooooooooooooXXXXXXXX....XXXXXXXX    XXXXXXXX        oooooooooooo",
"ooooooooooooXXXXXXXX....XXXXXXXX    XXXXXXXX        oooooooooooo",
"ooooooooooooXXXXXXXX....XXXXXXXX    XXXXXXXX        oooooooooooo",
"ooooooooooooXXXXXXXX....XXXXXXXX    XXXXXXXX        oooooooooooo",
"ooooooooooooXXXXXXXX....XXXXXXXX    XXXXXXXX        oooooooooooo",
"ooooooooooooXXXXXXXX....XXXXXXXX    XXXXXXXX        oooooooooooo",
"ooooooooooooXXXXXXXX....XXXXXXXX    XXXXXXXX        oooooooooooo",
"ooooooooooooXXXXXXXX....XXXXXXXX    XXXXXXXX        oooooooooooo",
"ooooooooooooXXXXXXXX....XXXXXXXX    XXXXXXXX        oooooooooooo",
"ooooooooooooXXXXXXXX....XXXXXXXX    XXXXXXXX        oooooooooooo",
"ooooooooooooXXXXXXXX....XXXXXXXX    XXXXXXXX        oooooooooooo",
"ooooooooooooXXXXXXXX....XXXXXXXX    XXXXXXXX        oooooooooooo",
"ooooooooooooXXXXXXXX....XXXXXXXX    XXXXXXXX        oooooooooooo",
"ooooooooooooooooXXXXXXXX        XXXXXXXX        oooooooooooooooo",
"ooooooooooooooooXXXXXXXX        XXXXXXXX        oooooooooooooooo",
"ooooooooooooooooXXXXXXXX        XXXXXXXX        oooooooooooooooo",
"ooooooooooooooooXXXXXXXX        XXXXXXXX        oooooooooooooooo",
"ooooooooooooooooXXXXXXXXXXXXXXXXXXXXXXXX        oooooooooooooooo",
"ooooooooooooooooXXXXXXXXXXXXXXXXXXXXXXXX        oooooooooooooooo",
"ooooooooooooooooXXXXXXXXXXXXXXXXXXXXXXXX        oooooooooooooooo",
"ooooooooooooooooXXXXXXXXXXXXXXXXXXXXXXXX        oooooooooooooooo",
"ooooooooooooooooooooXXXXXXXXXXXXXXXX        oooooooooooooooooooo",
"ooooooooooooooooooooXXXXXXXXXXXXXXXX        oooooooooooooooooooo",
"ooooooooooooooooooooXXXXXXXXXXXXXXXX        oooooooooooooooooooo",
"ooooooooooooooooooooXXXXXXXXXXXXXXXX        oooooooooooooooooooo",
"oooooooooooooooooooooooooooooooooooooooooooooooooooooooooooooooo",
"oooooooooooooooooooooooooooooooooooooooooooooooooooooooooooooooo",
"oooooooooooooooooooooooooooooooooooooooooooooooooooooooooooooooo",
"oooooooooooooooooooooooooooooooooooooooooooooooooooooooooooooooo"
};
