/* XPM */
static char *result[] = {
/* columns rows colors chars-per-pixel */
"64 64 4 1 ",
"  c black",
". c #CFA826",
"X c #4874EC",
"o c #F9CFA8",
/* pixels */
"XXXXXXXXXXXX        XXXXXXXXXXXXXXXXXXXX        XXXXXXXXXXXXXXXX",
"XXXXXXXXXXXX        XXXXXXXXXXXXXXXXXXXX        XXXXXXXXXXXXXXXX",
"XXXXXXXXXXXX        XXXXXXXXXXXXXXXXXXXX        XXXXXXXXXXXXXXXX",
"XXXXXXXXXXXX        XXXXXXXXXXXXXXXXXXXX        XXXXXXXXXXXXXXXX",
"XXXXXXXX            XXXXXXXXXXXXXXXXXXXX            XXXXXXXXXXXX",
"XXXXXXXX            XXXXXXXXXXXXXXXXXXXX            XXXXXXXXXXXX",
"XXXXXXXX            XXXXXXXXXXXXXXXXXXXX            XXXXXXXXXXXX",
"XXXXXXXX            XXXXXXXXXXXXXXXXXXXX            XXXXXXXXXXXX",
"XXXXXXXX                XXXXXXXXXXXX                XXXXXXXXXXXX",
"XXXXXXXX                XXXXXXXXXXXX                XXXXXXXXXXXX",
"XXXXXXXX                XXXXXXXXXXXX                XXXXXXXXXXXX",
"XXXXXXXX                XXXXXXXXXXXX                XXXXXXXXXXXX",
"XXXX                    XXXXXXXXXXXX                    XXXXXXXX",
"XXXX                    XXXXXXXXXXXX                    XXXXXXXX",
"XXXX                    XXXXXXXXXXXX                    XXXXXXXX",
"XXXX                    XXXXXXXXXXXX                    XXXXXXXX",
"XXXX                    XXXXXXXXXXXX                    XXXXXXXX",
"XXXX                    XXXXXXXXXXXX                    XXXXXXXX",
"XXXX                    XXXXXXXXXXXX                    XXXXXXXX",
"XXXX                    XXXXXXXXXXXX                    XXXXXXXX",
"XXXX                        XXXX        oooooooo        XXXXXXXX",
"XXXX                        XXXX        oooooooo        XXXXXXXX",
"XXXX                        XXXX        oooooooo        XXXXXXXX",
"XXXX                        XXXX        oooooooo        XXXXXXXX",
"XXXX                        XXXX                        XXXXXXXX",
"XXXX                        XXXX                        XXXXXXXX",
"XXXX                        XXXX                        XXXXXXXX",
"XXXX                        XXXX                        XXXXXXXX",
"XXXX                                                    XXXXXXXX",
"XXXX                                                    XXXXXXXX",
"XXXX                                                    XXXXXXXX",
"XXXX                                                    XXXXXXXX",
"XXXXXXXX                                            XXXXXXXXXXXX",
"XXXXXXXX                                            XXXXXXXXXXXX",
"XXXXXXXX                                            XXXXXXXXXXXX",
"XXXXXXXX                                            XXXXXXXXXXXX",
"XXXXXXXX                                            XXXXXXXXXXXX",
"XXXXXXXX                                            XXXXXXXXXXXX",
"XXXXXXXX                                            XXXXXXXXXXXX",
"XXXXXXXX                                            XXXXXXXXXXXX",
"XXXXXXXXXXXX                                    XXXXXXXXXXXXXXXX",
"XXXXXXXXXXXX                                    XXXXXXXXXXXXXXXX",
"XXXXXXXXXXXX                                    XXXXXXXXXXXXXXXX",
"XXXXXXXXXXXX                                    XXXXXXXXXXXXXXXX",
"XXXXXXXX        XXXX                    XXXXXXXX            XXXX",
"XXXXXXXX        XXXX                    XXXXXXXX            XXXX",
"XXXXXXXX        XXXX                    XXXXXXXX            XXXX",
"XXXXXXXX        XXXX                    XXXXXXXX            XXXX",
"XXXX    ........    XXXX    ....    XXXX        ............    ",
"XXXX    ........    XXXX    ....    XXXX        ............    ",
"XXXX    ........    XXXX    ....    XXXX        ............    ",
"XXXX    ........    XXXX    ....    XXXX        ............    ",
"    ................        ....        ....................    ",
"    ................        ....        ....................    ",
"    ................        ....        ....................    ",
"    ................        ....        ....................    ",
"XXXX        ............    ....    ................        XXXX",
"XXXX        ............    ....    ................        XXXX",
"XXXX        ............    ....    ................        XXXX",
"XXXX        ............    ....    ................        XXXX",
"XXXXXXXXXXXX                                        XXXXXXXXXXXX",
"XXXXXXXXXXXX                                        XXXXXXXXXXXX",
"XXXXXXXXXXXX                                        XXXXXXXXXXXX",
"XXXXXXXXXXXX                                        XXXXXXXXXXXX"
};
