/* XPM */
static char *result[] = {
/* columns rows colors chars-per-pixel */
"64 64 4 1 ",
"  c black",
". c #CFA826",
"X c #4874EC",
"o c #F9CFA8",
/* pixels */
"XXXXXXXXXXXXXXXXXXXXXXXXXXXXXXXXXXXXXXXXXXXXXXXX        XXXXXXXX",
"XXXXXXXXXXXXXXXXXXXXXXXXXXXXXXXXXXXXXXXXXXXXXXXX        XXXXXXXX",
"XXXXXXXXXXXXXXXXXXXXXXXXXXXXXXXXXXXXXXXXXXXXXXXX        XXXXXXXX",
"XXXXXXXXXXXXXXXXXXXXXXXXXXXXXXXXXXXXXXXXXXXXXXXX        XXXXXXXX",
"XXXXXXXXXXXXXXXXXXXXXXXXXXXXXXXXXXXXXXXXXXXX    ........    XXXX",
"XXXXXXXXXXXXXXXXXXXXXXXXXXXXXXXXXXXXXXXXXXXX    ........    XXXX",
"XXXXXXXXXXXXXXXXXXXXXXXXXXXXXXXXXXXXXXXXXXXX    ........    XXXX",
"XXXXXXXXXXXXXXXXXXXXXXXXXXXXXXXXXXXXXXXXXXXX    ........    XXXX",
"XXXXXXXXXXXX                    XXXXXXXXXXXX    ........    XXXX",
"XXXXXXXXXXXX                    XXXXXXXXXXXX    ........    XXXX",
"XXXXXXXXXXXX                    XXXXXXXXXXXX    ........    XXXX",
"XXXXXXXXXXXX                    XXXXXXXXXXXX    ........    XXXX",
"XXXX                                    XXXX    ............    ",
"XXXX                                    XXXX    ............    ",
"XXXX                                    XXXX    ............    ",
"XXXX                                    XXXX    ............    ",
"                    oooo                    XXXX    ........    ",
"                    oooo                    XXXX    ........    ",
"                    oooo                    XXXX    ........    ",
"                    oooo                    XXXX    ........    ",
"                    oooo                    XXXX    ........    ",
"                    oooo                    XXXX    ........    ",
"                    oooo                    XXXX    ........    ",
"                    oooo                    XXXX    ........    ",
"XXXXXXXX                                        XXXX    ....    ",
"XXXXXXXX                                        XXXX    ....    ",
"XXXXXXXX                                        XXXX    ....    ",
"XXXXXXXX                                        XXXX    ....    ",
"XXXXXXXXXXXXXXXXXXXX                                            ",
"XXXXXXXXXXXXXXXXXXXX                                            ",
"XXXXXXXXXXXXXXXXXXXX                                            ",
"XXXXXXXXXXXXXXXXXXXX                                            ",
"XXXXXXXXXXXXXXXXXXXXXXXXXXXX                    ............    ",
"XXXXXXXXXXXXXXXXXXXXXXXXXXXX                    ............    ",
"XXXXXXXXXXXXXXXXXXXXXXXXXXXX                    ............    ",
"XXXXXXXXXXXXXXXXXXXXXXXXXXXX                    ............    ",
"XXXXXXXXXXXXXXXXXXXX                                            ",
"XXXXXXXXXXXXXXXXXXXX                                            ",
"XXXXXXXXXXXXXXXXXXXX                                            ",
"XXXXXXXXXXXXXXXXXXXX                                            ",
"XXXXXXXX                                        XXXX    ....    ",
"XXXXXXXX                                        XXXX    ....    ",
"XXXXXXXX                                        XXXX    ....    ",
"XXXXXXXX                                        XXXX    ....    ",
"                                            XXXX    ........    ",
"                                            XXXX    ........    ",
"                                            XXXX    ........    ",
"                                            XXXX    ........    ",
"                                                ............    ",
"                                                ............    ",
"                                                ............    ",
"                                                ............    ",
"XXXX                                    XXXX    ........    XXXX",
"XXXX                                    XXXX    ........    XXXX",
"XXXX                                    XXXX    ........    XXXX",
"XXXX                                    XXXX    ........    XXXX",
"XXXXXXXXXXXX                    XXXXXXXXXXXXXXXX    ....    XXXX",
"XXXXXXXXXXXX                    XXXXXXXXXXXXXXXX    ....    XXXX",
"XXXXXXXXXXXX                    XXXXXXXXXXXXXXXX    ....    XXXX",
"XXXXXXXXXXXX                    XXXXXXXXXXXXXXXX    ....    XXXX",
"XXXXXXXXXXXXXXXXXXXXXXXXXXXXXXXXXXXXXXXXXXXXXXXXXXXX    XXXXXXXX",
"XXXXXXXXXXXXXXXXXXXXXXXXXXXXXXXXXXXXXXXXXXXXXXXXXXXX    XXXXXXXX",
"XXXXXXXXXXXXXXXXXXXXXXXXXXXXXXXXXXXXXXXXXXXXXXXXXXXX    XXXXXXXX",
"XXXXXXXXXXXXXXXXXXXXXXXXXXXXXXXXXXXXXXXXXXXXXXXXXXXX    XXXXXXXX"
};
