/* XPM */
static char *result[] = {
/* columns rows colors chars-per-pixel */
"64 64 4 1 ",
"  c black",
". c #CFA826",
"X c #4874EC",
"o c #F9CFA8",
/* pixels */
"XXXXXXXX        XXXXXXXXXXXXXXXX            XXXXXXXXXXXXXXXXXXXX",
"XXXXXXXX        XXXXXXXXXXXXXXXX            XXXXXXXXXXXXXXXXXXXX",
"XXXXXXXX        XXXXXXXXXXXXXXXX            XXXXXXXXXXXXXXXXXXXX",
"XXXXXXXX        XXXXXXXXXXXXXXXX            XXXXXXXXXXXXXXXXXXXX",
"XXXX    ........    XXXX                            XXXXXXXXXXXX",
"XXXX    ........    XXXX                            XXXXXXXXXXXX",
"XXXX    ........    XXXX                            XXXXXXXXXXXX",
"XXXX    ........    XXXX                            XXXXXXXXXXXX",
"XXXX    ........                    oooo                    XXXX",
"XXXX    ........                    oooo                    XXXX",
"XXXX    ........                    oooo                    XXXX",
"XXXX    ........                    oooo                    XXXX",
"    ............                    oooo                    XXXX",
"    ............                    oooo                    XXXX",
"    ............                    oooo                    XXXX",
"    ............                    oooo                    XXXX",
"    ........                                            XXXXXXXX",
"    ........                                            XXXXXXXX",
"    ........                                            XXXXXXXX",
"    ........                                            XXXXXXXX",
"    ........                                    XXXXXXXXXXXXoooo",
"    ........                                    XXXXXXXXXXXXoooo",
"    ........                                    XXXXXXXXXXXXoooo",
"    ........                                    XXXXXXXXXXXXoooo",
"    ....                                XXXXXXXXooooXXXXXXXXXXXX",
"    ....                                XXXXXXXXooooXXXXXXXXXXXX",
"    ....                                XXXXXXXXooooXXXXXXXXXXXX",
"    ....                                XXXXXXXXooooXXXXXXXXXXXX",
"                                XXXXXXXXXXXXXXXXXXXXXXXXXXXXXXXX",
"                                XXXXXXXXXXXXXXXXXXXXXXXXXXXXXXXX",
"                                XXXXXXXXXXXXXXXXXXXXXXXXXXXXXXXX",
"                                XXXXXXXXXXXXXXXXXXXXXXXXXXXXXXXX",
"    ............            XXXXXXXXXXXXooooXXXXXXXXXXXXXXXXXXXX",
"    ............            XXXXXXXXXXXXooooXXXXXXXXXXXXXXXXXXXX",
"    ............            XXXXXXXXXXXXooooXXXXXXXXXXXXXXXXXXXX",
"    ............            XXXXXXXXXXXXooooXXXXXXXXXXXXXXXXXXXX",
"                                XXXXXXXXXXXXXXXXXXXXXXXXooooXXXX",
"                                XXXXXXXXXXXXXXXXXXXXXXXXooooXXXX",
"                                XXXXXXXXXXXXXXXXXXXXXXXXooooXXXX",
"                                XXXXXXXXXXXXXXXXXXXXXXXXooooXXXX",
"    ....                                XXXXXXXXXXXXXXXXXXXXXXXX",
"    ....                                XXXXXXXXXXXXXXXXXXXXXXXX",
"    ....                                XXXXXXXXXXXXXXXXXXXXXXXX",
"    ....                                XXXXXXXXXXXXXXXXXXXXXXXX",
"    ........                                    XXXXXXXXXXXXXXXX",
"    ........                                    XXXXXXXXXXXXXXXX",
"    ........                                    XXXXXXXXXXXXXXXX",
"    ........                                    XXXXXXXXXXXXXXXX",
"    ............                                        XXXXXXXX",
"    ............                                        XXXXXXXX",
"    ............                                        XXXXXXXX",
"    ............                                        XXXXXXXX",
"XXXX    ........                                            XXXX",
"XXXX    ........                                            XXXX",
"XXXX    ........                                            XXXX",
"XXXX    ........                                            XXXX",
"XXXX    ....    XXXXXXXX                                    XXXX",
"XXXX    ....    XXXXXXXX                                    XXXX",
"XXXX    ....    XXXXXXXX                                    XXXX",
"XXXX    ....    XXXXXXXX                                    XXXX",
"XXXXXXXX    XXXXXXXXXXXXXXXXXXXX                    XXXXXXXXXXXX",
"XXXXXXXX    XXXXXXXXXXXXXXXXXXXX                    XXXXXXXXXXXX",
"XXXXXXXX    XXXXXXXXXXXXXXXXXXXX                    XXXXXXXXXXXX",
"XXXXXXXX    XXXXXXXXXXXXXXXXXXXX                    XXXXXXXXXXXX"
};
