/* XPM */
static char *result[] = {
/* columns rows colors chars-per-pixel */
"64 64 5 1 ",
"  c black",
". c #181B1D",
"X c #904611",
"o c #4874EC",
"O c #F9CFA8",
/* pixels */
"ooooooooooooooooooooooooXXXXXXXXXXXXXXXXoooooooooooooooooooooooo",
"ooooooooooooooooooooooooXXXXXXXXXXXXXXXXoooooooooooooooooooooooo",
"ooooooooooooooooooooooooXXXXXXXXXXXXXXXXoooooooooooooooooooooooo",
"ooooooooooooooooooooooooXXXXXXXXXXXXXXXXoooooooooooooooooooooooo",
"ooooooooooooooooooooXXXXXXXXXXXXXXXXXXXXXXXXoooooooooooooooooooo",
"ooooooooooooooooooooXXXXXXXXXXXXXXXXXXXXXXXXoooooooooooooooooooo",
"ooooooooooooooooooooXXXXXXXXXXXXXXXXXXXXXXXXoooooooooooooooooooo",
"ooooooooooooooooooooXXXXXXXXXXXXXXXXXXXXXXXXoooooooooooooooooooo",
"ooooooooooooooooXXXXXXXXXXXXXXXXXXXXXXXXXXXXXXXXoooooooooooooooo",
"ooooooooooooooooXXXXXXXXXXXXXXXXXXXXXXXXXXXXXXXXoooooooooooooooo",
"ooooooooooooooooXXXXXXXXXXXXXXXXXXXXXXXXXXXXXXXXoooooooooooooooo",
"ooooooooooooooooXXXXXXXXXXXXXXXXXXXXXXXXXXXXXXXXoooooooooooooooo",
"ooooooooooooXXXXXXXXXXXXXXXXXXXXXXXXXXXXXXXXXXXXXXXXoooooooooooo",
"ooooooooooooXXXXXXXXXXXXXXXXXXXXXXXXXXXXXXXXXXXXXXXXoooooooooooo",
"ooooooooooooXXXXXXXXXXXXXXXXXXXXXXXXXXXXXXXXXXXXXXXXoooooooooooo",
"ooooooooooooXXXXXXXXXXXXXXXXXXXXXXXXXXXXXXXXXXXXXXXXoooooooooooo",
"ooooooooXXXX        XXXXXXXXXXXXXXXXXXXXXXXX        XXXXoooooooo",
"ooooooooXXXX        XXXXXXXXXXXXXXXXXXXXXXXX        XXXXoooooooo",
"ooooooooXXXX        XXXXXXXXXXXXXXXXXXXXXXXX        XXXXoooooooo",
"ooooooooXXXX        XXXXXXXXXXXXXXXXXXXXXXXX        XXXXoooooooo",
"ooooXXXXXXXXXXXXOOOO    XXXXXXXXXXXXXXXX    OOOOXXXXXXXXXXXXoooo",
"ooooXXXXXXXXXXXXOOOO    XXXXXXXXXXXXXXXX    OOOOXXXXXXXXXXXXoooo",
"ooooXXXXXXXXXXXXOOOO    XXXXXXXXXXXXXXXX    OOOOXXXXXXXXXXXXoooo",
"ooooXXXXXXXXXXXXOOOO    XXXXXXXXXXXXXXXX    OOOOXXXXXXXXXXXXoooo",
"ooooXXXXXXXXXXXXOOOO                        OOOOXXXXXXXXXXXXoooo",
"ooooXXXXXXXXXXXXOOOO                        OOOOXXXXXXXXXXXXoooo",
"ooooXXXXXXXXXXXXOOOO                        OOOOXXXXXXXXXXXXoooo",
"ooooXXXXXXXXXXXXOOOO                        OOOOXXXXXXXXXXXXoooo",
"XXXXXXXXXXXXXXXXOOOO    OOOOXXXXXXXXOOOO    OOOOXXXXXXXXXXXXXXXX",
"XXXXXXXXXXXXXXXXOOOO    OOOOXXXXXXXXOOOO    OOOOXXXXXXXXXXXXXXXX",
"XXXXXXXXXXXXXXXXOOOO    OOOOXXXXXXXXOOOO    OOOOXXXXXXXXXXXXXXXX",
"XXXXXXXXXXXXXXXXOOOO    OOOOXXXXXXXXOOOO    OOOOXXXXXXXXXXXXXXXX",
"XXXXXXXXXXXXXXXXOOOOOOOOOOOOXXXXXXXXOOOOOOOOOOOOXXXXXXXXXXXXXXXX",
"XXXXXXXXXXXXXXXXOOOOOOOOOOOOXXXXXXXXOOOOOOOOOOOOXXXXXXXXXXXXXXXX",
"XXXXXXXXXXXXXXXXOOOOOOOOOOOOXXXXXXXXOOOOOOOOOOOOXXXXXXXXXXXXXXXX",
"XXXXXXXXXXXXXXXXOOOOOOOOOOOOXXXXXXXXOOOOOOOOOOOOXXXXXXXXXXXXXXXX",
"XXXXXXXXXXXXXXXXXXXXXXXXXXXXXXXXXXXXXXXXXXXXXXXXXXXXXXXXXXXXXXXX",
"XXXXXXXXXXXXXXXXXXXXXXXXXXXXXXXXXXXXXXXXXXXXXXXXXXXXXXXXXXXXXXXX",
"XXXXXXXXXXXXXXXXXXXXXXXXXXXXXXXXXXXXXXXXXXXXXXXXXXXXXXXXXXXXXXXX",
"XXXXXXXXXXXXXXXXXXXXXXXXXXXXXXXXXXXXXXXXXXXXXXXXXXXXXXXXXXXXXXXX",
"ooooXXXXXXXXXXXXXXXXOOOOOOOOOOOOOOOOOOOOOOOOXXXXXXXXXXXXXXXXoooo",
"ooooXXXXXXXXXXXXXXXXOOOOOOOOOOOOOOOOOOOOOOOOXXXXXXXXXXXXXXXXoooo",
"ooooXXXXXXXXXXXXXXXXOOOOOOOOOOOOOOOOOOOOOOOOXXXXXXXXXXXXXXXXoooo",
"ooooXXXXXXXXXXXXXXXXOOOOOOOOOOOOOOOOOOOOOOOOXXXXXXXXXXXXXXXXoooo",
"ooooooooooooooooOOOOOOOOOOOOOOOOOOOOOOOOOOOOOOOOoooooooooooooooo",
"ooooooooooooooooOOOOOOOOOOOOOOOOOOOOOOOOOOOOOOOOoooooooooooooooo",
"ooooooooooooooooOOOOOOOOOOOOOOOOOOOOOOOOOOOOOOOOoooooooooooooooo",
"ooooooooooooooooOOOOOOOOOOOOOOOOOOOOOOOOOOOOOOOOoooooooooooooooo",
"oooooooo........OOOOOOOOOOOOOOOOOOOOOOOOOOOOOOOOoooooooooooooooo",
"oooooooo........OOOOOOOOOOOOOOOOOOOOOOOOOOOOOOOOoooooooooooooooo",
"oooooooo........OOOOOOOOOOOOOOOOOOOOOOOOOOOOOOOOoooooooooooooooo",
"oooooooo........OOOOOOOOOOOOOOOOOOOOOOOOOOOOOOOOoooooooooooooooo",
"oooo........            OOOOOOOOOOOOOOOOOOOO        oooooooooooo",
"oooo........            OOOOOOOOOOOOOOOOOOOO        oooooooooooo",
"oooo........            OOOOOOOOOOOOOOOOOOOO        oooooooooooo",
"oooo........            OOOOOOOOOOOOOOOOOOOO        oooooooooooo",
"oooo........                OOOOOOOOOOOO            oooooooooooo",
"oooo........                OOOOOOOOOOOO            oooooooooooo",
"oooo........                OOOOOOOOOOOO            oooooooooooo",
"oooo........                OOOOOOOOOOOO            oooooooooooo",
"oooooooo............        oooooooo            oooooooooooooooo",
"oooooooo............        oooooooo            oooooooooooooooo",
"oooooooo............        oooooooo            oooooooooooooooo",
"oooooooo............        oooooooo            oooooooooooooooo"
};
