/* XPM */
static char *result[] = {
/* columns rows colors chars-per-pixel */
"64 64 4 1 ",
"  c black",
". c #CFA826",
"X c #4874EC",
"o c #F9CFA8",
/* pixels */
"XXXXXXXXXXXX                                        XXXXXXXXXXXX",
"XXXXXXXXXXXX                                        XXXXXXXXXXXX",
"XXXXXXXXXXXX                                        XXXXXXXXXXXX",
"XXXXXXXXXXXX                                        XXXXXXXXXXXX",
"XXXX        ................    ....    ............        XXXX",
"XXXX        ................    ....    ............        XXXX",
"XXXX        ................    ....    ............        XXXX",
"XXXX        ................    ....    ............        XXXX",
"    ....................        ....        ................    ",
"    ....................        ....        ................    ",
"    ....................        ....        ................    ",
"    ....................        ....        ................    ",
"    ............                ....            ........    XXXX",
"    ............                ....            ........    XXXX",
"    ............                ....            ........    XXXX",
"    ............                ....            ........    XXXX",
"XXXX                                                    XXXXXXXX",
"XXXX                                                    XXXXXXXX",
"XXXX                                                    XXXXXXXX",
"XXXX                                                    XXXXXXXX",
"XXXXXXXX                                                XXXXXXXX",
"XXXXXXXX                                                XXXXXXXX",
"XXXXXXXX                                                XXXXXXXX",
"XXXXXXXX                                                XXXXXXXX",
"XXXX                                                        XXXX",
"XXXX                                                        XXXX",
"XXXX                                                        XXXX",
"XXXX                                                        XXXX",
"XXXX                            XXXX                        XXXX",
"XXXX                            XXXX                        XXXX",
"XXXX                            XXXX                        XXXX",
"XXXX                            XXXX                        XXXX",
"                            XXXXXXXXXXXX                        ",
"                            XXXXXXXXXXXX                        ",
"                            XXXXXXXXXXXX                        ",
"                            XXXXXXXXXXXX                        ",
"        oooooooo            XXXXXXXXXXXX                        ",
"        oooooooo            XXXXXXXXXXXX                        ",
"        oooooooo            XXXXXXXXXXXX                        ",
"        oooooooo            XXXXXXXXXXXX                        ",
"                        XXXXXXXXooooXXXXXXXX                    ",
"                        XXXXXXXXooooXXXXXXXX                    ",
"                        XXXXXXXXooooXXXXXXXX                    ",
"                        XXXXXXXXooooXXXXXXXX                    ",
"XXXX                    XXXXXXXXXXXXXXXXXXXX                    ",
"XXXX                    XXXXXXXXXXXXXXXXXXXX                    ",
"XXXX                    XXXXXXXXXXXXXXXXXXXX                    ",
"XXXX                    XXXXXXXXXXXXXXXXXXXX                    ",
"XXXX                XXXXooooXXXXXXXXXXXXXXXXXXXX                ",
"XXXX                XXXXooooXXXXXXXXXXXXXXXXXXXX                ",
"XXXX                XXXXooooXXXXXXXXXXXXXXXXXXXX                ",
"XXXX                XXXXooooXXXXXXXXXXXXXXXXXXXX                ",
"XXXXXXXX            XXXXXXXXXXXXXXXXXXXXXXXXXXXX            XXXX",
"XXXXXXXX            XXXXXXXXXXXXXXXXXXXXXXXXXXXX            XXXX",
"XXXXXXXX            XXXXXXXXXXXXXXXXXXXXXXXXXXXX            XXXX",
"XXXXXXXX            XXXXXXXXXXXXXXXXXXXXXXXXXXXX            XXXX",
"XXXXXXXX        XXXXXXXXXXXXXXXXXXXXooooXXXXXXXXXXXX        XXXX",
"XXXXXXXX        XXXXXXXXXXXXXXXXXXXXooooXXXXXXXXXXXX        XXXX",
"XXXXXXXX        XXXXXXXXXXXXXXXXXXXXooooXXXXXXXXXXXX        XXXX",
"XXXXXXXX        XXXXXXXXXXXXXXXXXXXXooooXXXXXXXXXXXX        XXXX",
"XXXXXXXXXXXXXXXXXXXXooooXXXXXXXXXXXXXXXXXXXXXXXXXXXXXXXXXXXXXXXX",
"XXXXXXXXXXXXXXXXXXXXooooXXXXXXXXXXXXXXXXXXXXXXXXXXXXXXXXXXXXXXXX",
"XXXXXXXXXXXXXXXXXXXXooooXXXXXXXXXXXXXXXXXXXXXXXXXXXXXXXXXXXXXXXX",
"XXXXXXXXXXXXXXXXXXXXooooXXXXXXXXXXXXXXXXXXXXXXXXXXXXXXXXXXXXXXXX"
};
