/* XPM */
static char *result[] = {
/* columns rows colors chars-per-pixel */
"64 64 4 1 ",
"  c black",
". c #CFA826",
"X c #4874EC",
"o c #F9CFA8",
/* pixels */
"XXXXXXXX        XXXXXXXXXXXXXXXXXXXXXXXXXXXXXXXXXXXXXXXXXXXXXXXX",
"XXXXXXXX        XXXXXXXXXXXXXXXXXXXXXXXXXXXXXXXXXXXXXXXXXXXXXXXX",
"XXXXXXXX        XXXXXXXXXXXXXXXXXXXXXXXXXXXXXXXXXXXXXXXXXXXXXXXX",
"XXXXXXXX        XXXXXXXXXXXXXXXXXXXXXXXXXXXXXXXXXXXXXXXXXXXXXXXX",
"XXXX    ........    XXXXXXXXXXXXXXXXXXXXXXXXXXXXXXXXXXXXXXXXXXXX",
"XXXX    ........    XXXXXXXXXXXXXXXXXXXXXXXXXXXXXXXXXXXXXXXXXXXX",
"XXXX    ........    XXXXXXXXXXXXXXXXXXXXXXXXXXXXXXXXXXXXXXXXXXXX",
"XXXX    ........    XXXXXXXXXXXXXXXXXXXXXXXXXXXXXXXXXXXXXXXXXXXX",
"XXXX    ........    XXXXXXXXXXXX                    XXXXXXXXXXXX",
"XXXX    ........    XXXXXXXXXXXX                    XXXXXXXXXXXX",
"XXXX    ........    XXXXXXXXXXXX                    XXXXXXXXXXXX",
"XXXX    ........    XXXXXXXXXXXX                    XXXXXXXXXXXX",
"    ............    XXXX                                    XXXX",
"    ............    XXXX                                    XXXX",
"    ............    XXXX                                    XXXX",
"    ............    XXXX                                    XXXX",
"    ........    XXXX                    oooo                    ",
"    ........    XXXX                    oooo                    ",
"    ........    XXXX                    oooo                    ",
"    ........    XXXX                    oooo                    ",
"    ........    XXXX                    oooo                    ",
"    ........    XXXX                    oooo                    ",
"    ........    XXXX                    oooo                    ",
"    ........    XXXX                    oooo                    ",
"    ....    XXXX                                        XXXXXXXX",
"    ....    XXXX                                        XXXXXXXX",
"    ....    XXXX                                        XXXXXXXX",
"    ....    XXXX                                        XXXXXXXX",
"                                            XXXXXXXXXXXXXXXXXXXX",
"                                            XXXXXXXXXXXXXXXXXXXX",
"                                            XXXXXXXXXXXXXXXXXXXX",
"                                            XXXXXXXXXXXXXXXXXXXX",
"    ............                    XXXXXXXXXXXXXXXXXXXXXXXXXXXX",
"    ............                    XXXXXXXXXXXXXXXXXXXXXXXXXXXX",
"    ............                    XXXXXXXXXXXXXXXXXXXXXXXXXXXX",
"    ............                    XXXXXXXXXXXXXXXXXXXXXXXXXXXX",
"                                            XXXXXXXXXXXXXXXXXXXX",
"                                            XXXXXXXXXXXXXXXXXXXX",
"                                            XXXXXXXXXXXXXXXXXXXX",
"                                            XXXXXXXXXXXXXXXXXXXX",
"    ....    XXXX                                        XXXXXXXX",
"    ....    XXXX                                        XXXXXXXX",
"    ....    XXXX                                        XXXXXXXX",
"    ....    XXXX                                        XXXXXXXX",
"    ........    XXXX                                            ",
"    ........    XXXX                                            ",
"    ........    XXXX                                            ",
"    ........    XXXX                                            ",
"    ............                                                ",
"    ............                                                ",
"    ............                                                ",
"    ............                                                ",
"XXXX    ........    XXXX                                    XXXX",
"XXXX    ........    XXXX                                    XXXX",
"XXXX    ........    XXXX                                    XXXX",
"XXXX    ........    XXXX                                    XXXX",
"XXXX    ....    XXXXXXXXXXXXXXXX                    XXXXXXXXXXXX",
"XXXX    ....    XXXXXXXXXXXXXXXX                    XXXXXXXXXXXX",
"XXXX    ....    XXXXXXXXXXXXXXXX                    XXXXXXXXXXXX",
"XXXX    ....    XXXXXXXXXXXXXXXX                    XXXXXXXXXXXX",
"XXXXXXXX    XXXXXXXXXXXXXXXXXXXXXXXXXXXXXXXXXXXXXXXXXXXXXXXXXXXX",
"XXXXXXXX    XXXXXXXXXXXXXXXXXXXXXXXXXXXXXXXXXXXXXXXXXXXXXXXXXXXX",
"XXXXXXXX    XXXXXXXXXXXXXXXXXXXXXXXXXXXXXXXXXXXXXXXXXXXXXXXXXXXX",
"XXXXXXXX    XXXXXXXXXXXXXXXXXXXXXXXXXXXXXXXXXXXXXXXXXXXXXXXXXXXX"
};
