/* XPM */
static char *result[] = {
/* columns rows colors chars-per-pixel */
"64 64 4 1 ",
"  c black",
". c #CFA826",
"X c #4874EC",
"o c #F9CFA8",
/* pixels */
"XXXXXXXXXXXX                                        XXXXXXXXXXXX",
"XXXXXXXXXXXX                                        XXXXXXXXXXXX",
"XXXXXXXXXXXX                                        XXXXXXXXXXXX",
"XXXXXXXXXXXX                                        XXXXXXXXXXXX",
"XXXX        ................    ....    ............        XXXX",
"XXXX        ................    ....    ............        XXXX",
"XXXX        ................    ....    ............        XXXX",
"XXXX        ................    ....    ............        XXXX",
"    ....................        ....        ................    ",
"    ....................        ....        ................    ",
"    ....................        ....        ................    ",
"    ....................        ....        ................    ",
"    ............        XXXX    ....    XXXX    ........    XXXX",
"    ............        XXXX    ....    XXXX    ........    XXXX",
"    ............        XXXX    ....    XXXX    ........    XXXX",
"    ............        XXXX    ....    XXXX    ........    XXXX",
"XXXX            XXXXXXXX                    XXXX        XXXXXXXX",
"XXXX            XXXXXXXX                    XXXX        XXXXXXXX",
"XXXX            XXXXXXXX                    XXXX        XXXXXXXX",
"XXXX            XXXXXXXX                    XXXX        XXXXXXXX",
"XXXXXXXXXXXXXXXX                                    XXXXXXXXXXXX",
"XXXXXXXXXXXXXXXX                                    XXXXXXXXXXXX",
"XXXXXXXXXXXXXXXX                                    XXXXXXXXXXXX",
"XXXXXXXXXXXXXXXX                                    XXXXXXXXXXXX",
"XXXXXXXXXXXX                                            XXXXXXXX",
"XXXXXXXXXXXX                                            XXXXXXXX",
"XXXXXXXXXXXX                                            XXXXXXXX",
"XXXXXXXXXXXX                                            XXXXXXXX",
"XXXXXXXXXXXX                                            XXXXXXXX",
"XXXXXXXXXXXX                                            XXXXXXXX",
"XXXXXXXXXXXX                                            XXXXXXXX",
"XXXXXXXXXXXX                                            XXXXXXXX",
"XXXXXXXX                                                    XXXX",
"XXXXXXXX                                                    XXXX",
"XXXXXXXX                                                    XXXX",
"XXXXXXXX                                                    XXXX",
"XXXXXXXX                        XXXX                        XXXX",
"XXXXXXXX                        XXXX                        XXXX",
"XXXXXXXX                        XXXX                        XXXX",
"XXXXXXXX                        XXXX                        XXXX",
"XXXXXXXX        oooooooo        XXXX                        XXXX",
"XXXXXXXX        oooooooo        XXXX                        XXXX",
"XXXXXXXX        oooooooo        XXXX                        XXXX",
"XXXXXXXX        oooooooo        XXXX                        XXXX",
"XXXXXXXX                    XXXXXXXXXXXX                    XXXX",
"XXXXXXXX                    XXXXXXXXXXXX                    XXXX",
"XXXXXXXX                    XXXXXXXXXXXX                    XXXX",
"XXXXXXXX                    XXXXXXXXXXXX                    XXXX",
"XXXXXXXX                    XXXXXXXXXXXX                    XXXX",
"XXXXXXXX                    XXXXXXXXXXXX                    XXXX",
"XXXXXXXX                    XXXXXXXXXXXX                    XXXX",
"XXXXXXXX                    XXXXXXXXXXXX                    XXXX",
"XXXXXXXXXXXX                XXXXXXXXXXXX                XXXXXXXX",
"XXXXXXXXXXXX                XXXXXXXXXXXX                XXXXXXXX",
"XXXXXXXXXXXX                XXXXXXXXXXXX                XXXXXXXX",
"XXXXXXXXXXXX                XXXXXXXXXXXX                XXXXXXXX",
"XXXXXXXXXXXX            XXXXXXXXXXXXXXXXXXXX            XXXXXXXX",
"XXXXXXXXXXXX            XXXXXXXXXXXXXXXXXXXX            XXXXXXXX",
"XXXXXXXXXXXX            XXXXXXXXXXXXXXXXXXXX            XXXXXXXX",
"XXXXXXXXXXXX            XXXXXXXXXXXXXXXXXXXX            XXXXXXXX",
"XXXXXXXXXXXXXXXX        XXXXXXXXXXXXXXXXXXXX        XXXXXXXXXXXX",
"XXXXXXXXXXXXXXXX        XXXXXXXXXXXXXXXXXXXX        XXXXXXXXXXXX",
"XXXXXXXXXXXXXXXX        XXXXXXXXXXXXXXXXXXXX        XXXXXXXXXXXX",
"XXXXXXXXXXXXXXXX        XXXXXXXXXXXXXXXXXXXX        XXXXXXXXXXXX"
};
