/* XPM */
static char *result[] = {
/* columns rows colors chars-per-pixel */
"64 64 4 1 ",
"  c black",
". c #904611",
"X c #4874EC",
"o c #F9CFA8",
/* pixels */
"XXXXXXXXXXXXXXXXXXXXXXXX................XXXXXXXXXXXXXXXXXXXXXXXX",
"XXXXXXXXXXXXXXXXXXXXXXXX................XXXXXXXXXXXXXXXXXXXXXXXX",
"XXXXXXXXXXXXXXXXXXXXXXXX................XXXXXXXXXXXXXXXXXXXXXXXX",
"XXXXXXXXXXXXXXXXXXXXXXXX................XXXXXXXXXXXXXXXXXXXXXXXX",
"XXXXXXXXXXXXXXXXXXXX........................XXXXXXXXXXXXXXXXXXXX",
"XXXXXXXXXXXXXXXXXXXX........................XXXXXXXXXXXXXXXXXXXX",
"XXXXXXXXXXXXXXXXXXXX........................XXXXXXXXXXXXXXXXXXXX",
"XXXXXXXXXXXXXXXXXXXX........................XXXXXXXXXXXXXXXXXXXX",
"XXXXXXXXXXXXXXXX................................XXXXXXXXXXXXXXXX",
"XXXXXXXXXXXXXXXX................................XXXXXXXXXXXXXXXX",
"XXXXXXXXXXXXXXXX................................XXXXXXXXXXXXXXXX",
"XXXXXXXXXXXXXXXX................................XXXXXXXXXXXXXXXX",
"XXXXXXXXXXXX........................................XXXXXXXXXXXX",
"XXXXXXXXXXXX........................................XXXXXXXXXXXX",
"XXXXXXXXXXXX........................................XXXXXXXXXXXX",
"XXXXXXXXXXXX........................................XXXXXXXXXXXX",
"XXXXXXXX....        ........................        ....XXXXXXXX",
"XXXXXXXX....        ........................        ....XXXXXXXX",
"XXXXXXXX....        ........................        ....XXXXXXXX",
"XXXXXXXX....        ........................        ....XXXXXXXX",
"XXXX............oooo    ................    oooo............XXXX",
"XXXX............oooo    ................    oooo............XXXX",
"XXXX............oooo    ................    oooo............XXXX",
"XXXX............oooo    ................    oooo............XXXX",
"XXXX............oooo                        oooo............XXXX",
"XXXX............oooo                        oooo............XXXX",
"XXXX............oooo                        oooo............XXXX",
"XXXX............oooo                        oooo............XXXX",
"................oooo    oooo........oooo    oooo................",
"................oooo    oooo........oooo    oooo................",
"................oooo    oooo........oooo    oooo................",
"................oooo    oooo........oooo    oooo................",
"................oooooooooooo........oooooooooooo................",
"................oooooooooooo........oooooooooooo................",
"................oooooooooooo........oooooooooooo................",
"................oooooooooooo........oooooooooooo................",
"................................................................",
"................................................................",
"................................................................",
"................................................................",
"XXXX................oooooooooooooooooooooooo................XXXX",
"XXXX................oooooooooooooooooooooooo................XXXX",
"XXXX................oooooooooooooooooooooooo................XXXX",
"XXXX................oooooooooooooooooooooooo................XXXX",
"XXXXXXXXXXXXXXXXooooooooooooooooooooooooooooooooXXXXXXXXXXXXXXXX",
"XXXXXXXXXXXXXXXXooooooooooooooooooooooooooooooooXXXXXXXXXXXXXXXX",
"XXXXXXXXXXXXXXXXooooooooooooooooooooooooooooooooXXXXXXXXXXXXXXXX",
"XXXXXXXXXXXXXXXXooooooooooooooooooooooooooooooooXXXXXXXXXXXXXXXX",
"XXXXXXXXXXXXXXXXoooooooooooooooooooooooooooooooo        XXXXXXXX",
"XXXXXXXXXXXXXXXXoooooooooooooooooooooooooooooooo        XXXXXXXX",
"XXXXXXXXXXXXXXXXoooooooooooooooooooooooooooooooo        XXXXXXXX",
"XXXXXXXXXXXXXXXXoooooooooooooooooooooooooooooooo        XXXXXXXX",
"XXXXXXXXXXXX        oooooooooooooooooooo                    XXXX",
"XXXXXXXXXXXX        oooooooooooooooooooo                    XXXX",
"XXXXXXXXXXXX        oooooooooooooooooooo                    XXXX",
"XXXXXXXXXXXX        oooooooooooooooooooo                    XXXX",
"XXXXXXXXXXXX            oooooooooooo                        XXXX",
"XXXXXXXXXXXX            oooooooooooo                        XXXX",
"XXXXXXXXXXXX            oooooooooooo                        XXXX",
"XXXXXXXXXXXX            oooooooooooo                        XXXX",
"XXXXXXXXXXXXXXXX            XXXXXXXX                    XXXXXXXX",
"XXXXXXXXXXXXXXXX            XXXXXXXX                    XXXXXXXX",
"XXXXXXXXXXXXXXXX            XXXXXXXX                    XXXXXXXX",
"XXXXXXXXXXXXXXXX            XXXXXXXX                    XXXXXXXX"
};
