/* XPM */
static char *result[] = {
/* columns rows colors chars-per-pixel */
"64 64 4 1 ",
"  c black",
". c #CFA826",
"X c #4874EC",
"o c #F9CFA8",
/* pixels */
"XXXXXXXXXXXXXXXXXXXX            XXXXXXXXXXXXXXXX        XXXXXXXX",
"XXXXXXXXXXXXXXXXXXXX            XXXXXXXXXXXXXXXX        XXXXXXXX",
"XXXXXXXXXXXXXXXXXXXX            XXXXXXXXXXXXXXXX        XXXXXXXX",
"XXXXXXXXXXXXXXXXXXXX            XXXXXXXXXXXXXXXX        XXXXXXXX",
"XXXXXXXXXXXX                            XXXX    ........    XXXX",
"XXXXXXXXXXXX                            XXXX    ........    XXXX",
"XXXXXXXXXXXX                            XXXX    ........    XXXX",
"XXXXXXXXXXXX                            XXXX    ........    XXXX",
"XXXX                    oooo                    ........    XXXX",
"XXXX                    oooo                    ........    XXXX",
"XXXX                    oooo                    ........    XXXX",
"XXXX                    oooo                    ........    XXXX",
"XXXX                    oooo                    ............    ",
"XXXX                    oooo                    ............    ",
"XXXX                    oooo                    ............    ",
"XXXX                    oooo                    ............    ",
"XXXXXXXX                                            ........    ",
"XXXXXXXX                                            ........    ",
"XXXXXXXX                                            ........    ",
"XXXXXXXX                                            ........    ",
"ooooXXXXXXXXXXXX                                    ........    ",
"ooooXXXXXXXXXXXX                                    ........    ",
"ooooXXXXXXXXXXXX                                    ........    ",
"ooooXXXXXXXXXXXX                                    ........    ",
"XXXXXXXXXXXXooooXXXXXXXX                                ....    ",
"XXXXXXXXXXXXooooXXXXXXXX                                ....    ",
"XXXXXXXXXXXXooooXXXXXXXX                                ....    ",
"XXXXXXXXXXXXooooXXXXXXXX                                ....    ",
"XXXXXXXXXXXXXXXXXXXXXXXXXXXXXXXX                                ",
"XXXXXXXXXXXXXXXXXXXXXXXXXXXXXXXX                                ",
"XXXXXXXXXXXXXXXXXXXXXXXXXXXXXXXX                                ",
"XXXXXXXXXXXXXXXXXXXXXXXXXXXXXXXX                                ",
"XXXXXXXXXXXXXXXXXXXXooooXXXXXXXXXXXX            ............    ",
"XXXXXXXXXXXXXXXXXXXXooooXXXXXXXXXXXX            ............    ",
"XXXXXXXXXXXXXXXXXXXXooooXXXXXXXXXXXX            ............    ",
"XXXXXXXXXXXXXXXXXXXXooooXXXXXXXXXXXX            ............    ",
"XXXXooooXXXXXXXXXXXXXXXXXXXXXXXX                                ",
"XXXXooooXXXXXXXXXXXXXXXXXXXXXXXX                                ",
"XXXXooooXXXXXXXXXXXXXXXXXXXXXXXX                                ",
"XXXXooooXXXXXXXXXXXXXXXXXXXXXXXX                                ",
"XXXXXXXXXXXXXXXXXXXXXXXX                                ....    ",
"XXXXXXXXXXXXXXXXXXXXXXXX                                ....    ",
"XXXXXXXXXXXXXXXXXXXXXXXX                                ....    ",
"XXXXXXXXXXXXXXXXXXXXXXXX                                ....    ",
"XXXXXXXXXXXXXXXX                                    ........    ",
"XXXXXXXXXXXXXXXX                                    ........    ",
"XXXXXXXXXXXXXXXX                                    ........    ",
"XXXXXXXXXXXXXXXX                                    ........    ",
"XXXXXXXX                                        ............    ",
"XXXXXXXX                                        ............    ",
"XXXXXXXX                                        ............    ",
"XXXXXXXX                                        ............    ",
"XXXX                                            ........    XXXX",
"XXXX                                            ........    XXXX",
"XXXX                                            ........    XXXX",
"XXXX                                            ........    XXXX",
"XXXX                                    XXXXXXXX    ....    XXXX",
"XXXX                                    XXXXXXXX    ....    XXXX",
"XXXX                                    XXXXXXXX    ....    XXXX",
"XXXX                                    XXXXXXXX    ....    XXXX",
"XXXXXXXXXXXX                    XXXXXXXXXXXXXXXXXXXX    XXXXXXXX",
"XXXXXXXXXXXX                    XXXXXXXXXXXXXXXXXXXX    XXXXXXXX",
"XXXXXXXXXXXX                    XXXXXXXXXXXXXXXXXXXX    XXXXXXXX",
"XXXXXXXXXXXX                    XXXXXXXXXXXXXXXXXXXX    XXXXXXXX"
};
