/* XPM */
static char *result[] = {
/* columns rows colors chars-per-pixel */
"64 64 4 1 ",
"  c black",
". c #CFA826",
"X c #4874EC",
"o c #F9CFA8",
/* pixels */
"XXXXXXXXXXXXXXXXXXXXXXXXXXXXXXXXXXXXXXXXooooXXXXXXXXXXXXXXXXXXXX",
"XXXXXXXXXXXXXXXXXXXXXXXXXXXXXXXXXXXXXXXXooooXXXXXXXXXXXXXXXXXXXX",
"XXXXXXXXXXXXXXXXXXXXXXXXXXXXXXXXXXXXXXXXooooXXXXXXXXXXXXXXXXXXXX",
"XXXXXXXXXXXXXXXXXXXXXXXXXXXXXXXXXXXXXXXXooooXXXXXXXXXXXXXXXXXXXX",
"XXXX        XXXXXXXXXXXXooooXXXXXXXXXXXXXXXXXXXX        XXXXXXXX",
"XXXX        XXXXXXXXXXXXooooXXXXXXXXXXXXXXXXXXXX        XXXXXXXX",
"XXXX        XXXXXXXXXXXXooooXXXXXXXXXXXXXXXXXXXX        XXXXXXXX",
"XXXX        XXXXXXXXXXXXooooXXXXXXXXXXXXXXXXXXXX        XXXXXXXX",
"XXXX            XXXXXXXXXXXXXXXXXXXXXXXXXXXX            XXXXXXXX",
"XXXX            XXXXXXXXXXXXXXXXXXXXXXXXXXXX            XXXXXXXX",
"XXXX            XXXXXXXXXXXXXXXXXXXXXXXXXXXX            XXXXXXXX",
"XXXX            XXXXXXXXXXXXXXXXXXXXXXXXXXXX            XXXXXXXX",
"                XXXXXXXXXXXXXXXXXXXXooooXXXX                XXXX",
"                XXXXXXXXXXXXXXXXXXXXooooXXXX                XXXX",
"                XXXXXXXXXXXXXXXXXXXXooooXXXX                XXXX",
"                XXXXXXXXXXXXXXXXXXXXooooXXXX                XXXX",
"                    XXXXXXXXXXXXXXXXXXXX                    XXXX",
"                    XXXXXXXXXXXXXXXXXXXX                    XXXX",
"                    XXXXXXXXXXXXXXXXXXXX                    XXXX",
"                    XXXXXXXXXXXXXXXXXXXX                    XXXX",
"                    XXXXXXXXooooXXXXXXXX                        ",
"                    XXXXXXXXooooXXXXXXXX                        ",
"                    XXXXXXXXooooXXXXXXXX                        ",
"                    XXXXXXXXooooXXXXXXXX                        ",
"                        XXXXXXXXXXXX            oooooooo        ",
"                        XXXXXXXXXXXX            oooooooo        ",
"                        XXXXXXXXXXXX            oooooooo        ",
"                        XXXXXXXXXXXX            oooooooo        ",
"                        XXXXXXXXXXXX                            ",
"                        XXXXXXXXXXXX                            ",
"                        XXXXXXXXXXXX                            ",
"                        XXXXXXXXXXXX                            ",
"XXXX                        XXXX                            XXXX",
"XXXX                        XXXX                            XXXX",
"XXXX                        XXXX                            XXXX",
"XXXX                        XXXX                            XXXX",
"XXXX                                                        XXXX",
"XXXX                                                        XXXX",
"XXXX                                                        XXXX",
"XXXX                                                        XXXX",
"XXXXXXXX                                                XXXXXXXX",
"XXXXXXXX                                                XXXXXXXX",
"XXXXXXXX                                                XXXXXXXX",
"XXXXXXXX                                                XXXXXXXX",
"XXXXXXXX                                                    XXXX",
"XXXXXXXX                                                    XXXX",
"XXXXXXXX                                                    XXXX",
"XXXXXXXX                                                    XXXX",
"XXXX    ........            ....                ............    ",
"XXXX    ........            ....                ............    ",
"XXXX    ........            ....                ............    ",
"XXXX    ........            ....                ............    ",
"    ................        ....        ....................    ",
"    ................        ....        ....................    ",
"    ................        ....        ....................    ",
"    ................        ....        ....................    ",
"XXXX        ............    ....    ................        XXXX",
"XXXX        ............    ....    ................        XXXX",
"XXXX        ............    ....    ................        XXXX",
"XXXX        ............    ....    ................        XXXX",
"XXXXXXXXXXXX                                        XXXXXXXXXXXX",
"XXXXXXXXXXXX                                        XXXXXXXXXXXX",
"XXXXXXXXXXXX                                        XXXXXXXXXXXX",
"XXXXXXXXXXXX                                        XXXXXXXXXXXX"
};
