/* XPM */
static char *result[] = {
/* columns rows colors chars-per-pixel */
"64 64 4 1 ",
"  c black",
". c #904611",
"X c #CFA826",
"o c #4874EC",
/* pixels */
"ooooooooXXXXooooooooooooooooooooooooooooooooooooooooXXXXoooooooo",
"ooooooooXXXXooooooooooooooooooooooooooooooooooooooooXXXXoooooooo",
"ooooooooXXXXooooooooooooooooooooooooooooooooooooooooXXXXoooooooo",
"ooooooooXXXXooooooooooooooooooooooooooooooooooooooooXXXXoooooooo",
"ooooXXXX    XXXXXXXXoooooooo....    ooooooooXXXXXXXXooooXXXXoooo",
"ooooXXXX    XXXXXXXXoooooooo....    ooooooooXXXXXXXXooooXXXXoooo",
"ooooXXXX    XXXXXXXXoooooooo....    ooooooooXXXXXXXXooooXXXXoooo",
"ooooXXXX    XXXXXXXXoooooooo....    ooooooooXXXXXXXXooooXXXXoooo",
"ooooXXXX    XXXXXXXXXXXXXXXX        XXXXXXXXXXXXXXXXooooXXXXoooo",
"ooooXXXX    XXXXXXXXXXXXXXXX        XXXXXXXXXXXXXXXXooooXXXXoooo",
"ooooXXXX    XXXXXXXXXXXXXXXX        XXXXXXXXXXXXXXXXooooXXXXoooo",
"ooooXXXX    XXXXXXXXXXXXXXXX        XXXXXXXXXXXXXXXXooooXXXXoooo",
"XXXX    XXXXXXXXXXXXXXXXXXXX....    XXXXXXXXXXXXXXXXXXXXooooXXXX",
"XXXX    XXXXXXXXXXXXXXXXXXXX....    XXXXXXXXXXXXXXXXXXXXooooXXXX",
"XXXX    XXXXXXXXXXXXXXXXXXXX....    XXXXXXXXXXXXXXXXXXXXooooXXXX",
"XXXX    XXXXXXXXXXXXXXXXXXXX....    XXXXXXXXXXXXXXXXXXXXooooXXXX",
"XXXX    XXXXXXXXXXXXXXXXXXXX....    XXXXXXXXXXXXXXXXXXXXooooXXXX",
"XXXX    XXXXXXXXXXXXXXXXXXXX....    XXXXXXXXXXXXXXXXXXXXooooXXXX",
"XXXX    XXXXXXXXXXXXXXXXXXXX....    XXXXXXXXXXXXXXXXXXXXooooXXXX",
"XXXX    XXXXXXXXXXXXXXXXXXXX....    XXXXXXXXXXXXXXXXXXXXooooXXXX",
"XXXX    XXXXXXXXXXXXXXXXXXXX....    XXXXXXXXXXXXXXXXXXXXooooXXXX",
"XXXX    XXXXXXXXXXXXXXXXXXXX....    XXXXXXXXXXXXXXXXXXXXooooXXXX",
"XXXX    XXXXXXXXXXXXXXXXXXXX....    XXXXXXXXXXXXXXXXXXXXooooXXXX",
"XXXX    XXXXXXXXXXXXXXXXXXXX....    XXXXXXXXXXXXXXXXXXXXooooXXXX",
"XXXX    XXXXXXXXXXXXXXXXXXXX....    XXXXXXXXXXXXXXXXXXXXooooXXXX",
"XXXX    XXXXXXXXXXXXXXXXXXXX....    XXXXXXXXXXXXXXXXXXXXooooXXXX",
"XXXX    XXXXXXXXXXXXXXXXXXXX....    XXXXXXXXXXXXXXXXXXXXooooXXXX",
"XXXX    XXXXXXXXXXXXXXXXXXXX....    XXXXXXXXXXXXXXXXXXXXooooXXXX",
"XXXX    XXXXXXXXXXXXXXXXXXXX....    XXXXXXXXXXXXXXXXXXXXooooXXXX",
"XXXX    XXXXXXXXXXXXXXXXXXXX....    XXXXXXXXXXXXXXXXXXXXooooXXXX",
"XXXX    XXXXXXXXXXXXXXXXXXXX....    XXXXXXXXXXXXXXXXXXXXooooXXXX",
"XXXX    XXXXXXXXXXXXXXXXXXXX....    XXXXXXXXXXXXXXXXXXXXooooXXXX",
"ooooXXXX    XXXXXXXXXXXXXXXX....    XXXXXXXXXXXXXXXXooooXXXXoooo",
"ooooXXXX    XXXXXXXXXXXXXXXX....    XXXXXXXXXXXXXXXXooooXXXXoooo",
"ooooXXXX    XXXXXXXXXXXXXXXX....    XXXXXXXXXXXXXXXXooooXXXXoooo",
"ooooXXXX    XXXXXXXXXXXXXXXX....    XXXXXXXXXXXXXXXXooooXXXXoooo",
"oooooooo    XXXXXXXXoooooooo....    ooooooooooooXXXXooooXXXXoooo",
"oooooooo    XXXXXXXXoooooooo....    ooooooooooooXXXXooooXXXXoooo",
"oooooooo    XXXXXXXXoooooooo....    ooooooooooooXXXXooooXXXXoooo",
"oooooooo    XXXXXXXXoooooooo....    ooooooooooooXXXXooooXXXXoooo",
"ooooooooXXXXoooooooooooooooo        ooooooooooooooooXXXXoooooooo",
"ooooooooXXXXoooooooooooooooo        ooooooooooooooooXXXXoooooooo",
"ooooooooXXXXoooooooooooooooo        ooooooooooooooooXXXXoooooooo",
"ooooooooXXXXoooooooooooooooo        ooooooooooooooooXXXXoooooooo",
"oooooooooooooooooooooooooooo....    oooooooooooooooooooooooooooo",
"oooooooooooooooooooooooooooo....    oooooooooooooooooooooooooooo",
"oooooooooooooooooooooooooooo....    oooooooooooooooooooooooooooo",
"oooooooooooooooooooooooooooo....    oooooooooooooooooooooooooooo",
"oooooooooooooooooooooooooooo        oooooooooooooooooooooooooooo",
"oooooooooooooooooooooooooooo        oooooooooooooooooooooooooooo",
"oooooooooooooooooooooooooooo        oooooooooooooooooooooooooooo",
"oooooooooooooooooooooooooooo        oooooooooooooooooooooooooooo",
"oooooooooooooooooooooooooooo....    oooooooooooooooooooooooooooo",
"oooooooooooooooooooooooooooo....    oooooooooooooooooooooooooooo",
"oooooooooooooooooooooooooooo....    oooooooooooooooooooooooooooo",
"oooooooooooooooooooooooooooo....    oooooooooooooooooooooooooooo",
"oooooooooooooooooooooooooooo        oooooooooooooooooooooooooooo",
"oooooooooooooooooooooooooooo        oooooooooooooooooooooooooooo",
"oooooooooooooooooooooooooooo        oooooooooooooooooooooooooooo",
"oooooooooooooooooooooooooooo        oooooooooooooooooooooooooooo",
"oooooooooooooooooooooooooooo....    oooooooooooooooooooooooooooo",
"oooooooooooooooooooooooooooo....    oooooooooooooooooooooooooooo",
"oooooooooooooooooooooooooooo....    oooooooooooooooooooooooooooo",
"oooooooooooooooooooooooooooo....    oooooooooooooooooooooooooooo"
};
