/* XPM */
static char *result[] = {
/* columns rows colors chars-per-pixel */
"64 64 5 1 ",
"  c #54440B",
". c #91161F",
"X c #91171F",
"o c #CFA826",
"O c #4874EC",
/* pixels */
"OOOOOOOOOOOOOOOOOOOOXXXXXXXXXXXXXXXXXXXXOOOOOOOOOOOOOOOOOOOOOOOO",
"OOOOOOOOOOOOOOOOOOOOXXXXXXXXXXXXXXXXXXXXOOOOOOOOOOOOOOOOOOOOOOOO",
"OOOOOOOOOOOOOOOOOOOOXXXXXXXXXXXXXXXXXXXXOOOOOOOOOOOOOOOOOOOOOOOO",
"OOOOOOOOOOOOOOOOOOOOXXXXXXXXXXXXXXXXXXXXOOOOOOOOOOOOOOOOOOOOOOOO",
"OOOOOOOOOOOOOOOOXXXXXXXXXXXXXXXXXXXXXXXXXXXXXXXXXXXXOOOOOOOOOOOO",
"OOOOOOOOOOOOOOOOXXXXXXXXXXXXXXXXXXXXXXXXXXXXXXXXXXXXOOOOOOOOOOOO",
"OOOOOOOOOOOOOOOOXXXXXXXXXXXXXXXXXXXXXXXXXXXXXXXXXXXXOOOOOOOOOOOO",
"OOOOOOOOOOOOOOOOXXXXXXXXXXXXXXXXXXXXXXXXXXXXXXXXXXXXOOOOOOOOOOOO",
"OOOOOOOOOOOOOOOO            oooooooo    ooooOOOOOOOOOOOOOOOOOOOO",
"OOOOOOOOOOOOOOOO            oooooooo    ooooOOOOOOOOOOOOOOOOOOOO",
"OOOOOOOOOOOOOOOO            oooooooo    ooooOOOOOOOOOOOOOOOOOOOO",
"OOOOOOOOOOOOOOOO            oooooooo    ooooOOOOOOOOOOOOOOOOOOOO",
"OOOOOOOOOOOO    oooo    oooooooooooo    ooooooooooooOOOOOOOOOOOO",
"OOOOOOOOOOOO    oooo    oooooooooooo    ooooooooooooOOOOOOOOOOOO",
"OOOOOOOOOOOO    oooo    oooooooooooo    ooooooooooooOOOOOOOOOOOO",
"OOOOOOOOOOOO    oooo    oooooooooooo    ooooooooooooOOOOOOOOOOOO",
"OOOOOOOOOOOO    oooo        oooooooooooo    ooooooooooooOOOOOOOO",
"OOOOOOOOOOOO    oooo        oooooooooooo    ooooooooooooOOOOOOOO",
"OOOOOOOOOOOO    oooo        oooooooooooo    ooooooooooooOOOOOOOO",
"OOOOOOOOOOOO    oooo        oooooooooooo    ooooooooooooOOOOOOOO",
"OOOOOOOOOOOO        oooooooooooooooo                OOOOOOOOOOOO",
"OOOOOOOOOOOO        oooooooooooooooo                OOOOOOOOOOOO",
"OOOOOOOOOOOO        oooooooooooooooo                OOOOOOOOOOOO",
"OOOOOOOOOOOO        oooooooooooooooo                OOOOOOOOOOOO",
"OOOOOOOOOOOOOOOOOOOOooooooooooooooooooooooooooooOOOOOOOOOOOOOOOO",
"OOOOOOOOOOOOOOOOOOOOooooooooooooooooooooooooooooOOOOOOOOOOOOOOOO",
"OOOOOOOOOOOOOOOOOOOOooooooooooooooooooooooooooooOOOOOOOOOOOOOOOO",
"OOOOOOOOOOOOOOOOOOOOooooooooooooooooooooooooooooOOOOOOOOOOOOOOOO",
"OOOOOOOOOOOOOOOO        ....            OOOOOOOOOOOOOOOOOOOOOOOO",
"OOOOOOOOOOOOOOOO        ....            OOOOOOOOOOOOOOOOOOOOOOOO",
"OOOOOOOOOOOOOOOO        ....            OOOOOOOOOOOOOOOOOOOOOOOO",
"OOOOOOOOOOOOOOOO        ....            OOOOOOOOOOOOOOOOOOOOOOOO",
"OOOOOOOOOOOO            ....        ....            OOOOOOOOOOOO",
"OOOOOOOOOOOO            ....        ....            OOOOOOOOOOOO",
"OOOOOOOOOOOO            ....        ....            OOOOOOOOOOOO",
"OOOOOOOOOOOO            ....        ....            OOOOOOOOOOOO",
"OOOOOOOO                ................                OOOOOOOO",
"OOOOOOOO                ................                OOOOOOOO",
"OOOOOOOO                ................                OOOOOOOO",
"OOOOOOOO                ................                OOOOOOOO",
"OOOOOOOOoooooooo    ....oooo........oooo....    ooooooooOOOOOOOO",
"OOOOOOOOoooooooo    ....oooo........oooo....    ooooooooOOOOOOOO",
"OOOOOOOOoooooooo    ....oooo........oooo....    ooooooooOOOOOOOO",
"OOOOOOOOoooooooo    ....oooo........oooo....    ooooooooOOOOOOOO",
"OOOOOOOOoooooooooooo........................ooooooooooooOOOOOOOO",
"OOOOOOOOoooooooooooo........................ooooooooooooOOOOOOOO",
"OOOOOOOOoooooooooooo........................ooooooooooooOOOOOOOO",
"OOOOOOOOoooooooooooo........................ooooooooooooOOOOOOOO",
"OOOOOOOOoooooooo................................ooooooooOOOOOOOO",
"OOOOOOOOoooooooo................................ooooooooOOOOOOOO",
"OOOOOOOOoooooooo................................ooooooooOOOOOOOO",
"OOOOOOOOoooooooo................................ooooooooOOOOOOOO",
"OOOOOOOOOOOOOOOO............OOOOOOOO............OOOOOOOOOOOOOOOO",
"OOOOOOOOOOOOOOOO............OOOOOOOO............OOOOOOOOOOOOOOOO",
"OOOOOOOOOOOOOOOO............OOOOOOOO............OOOOOOOOOOOOOOOO",
"OOOOOOOOOOOOOOOO............OOOOOOOO............OOOOOOOOOOOOOOOO",
"OOOOOOOOOOOOOOOO            OOOOOOOO            OOOOOOOOOOOOOOOO",
"OOOOOOOOOOOOOOOO            OOOOOOOO            OOOOOOOOOOOOOOOO",
"OOOOOOOOOOOOOOOO            OOOOOOOO            OOOOOOOOOOOOOOOO",
"OOOOOOOOOOOOOOOO            OOOOOOOO            OOOOOOOOOOOOOOOO",
"OOOOOOOOOOOO                OOOOOOOO                OOOOOOOOOOOO",
"OOOOOOOOOOOO                OOOOOOOO                OOOOOOOOOOOO",
"OOOOOOOOOOOO                OOOOOOOO                OOOOOOOOOOOO",
"OOOOOOOOOOOO                OOOOOOOO                OOOOOOOOOOOO"
};
