/* XPM */
static char *result[] = {
/* columns rows colors chars-per-pixel */
"64 64 4 1 ",
"  c black",
". c #D6202D",
"X c #4874EC",
"o c #F9CFA8",
/* pixels */
"XXXXXXXXXXXXXXXXXXXX                        XXXXXXXXXXXXXXXXXXXX",
"XXXXXXXXXXXXXXXXXXXX                        XXXXXXXXXXXXXXXXXXXX",
"XXXXXXXXXXXXXXXXXXXX                        XXXXXXXXXXXXXXXXXXXX",
"XXXXXXXXXXXXXXXXXXXX                        XXXXXXXXXXXXXXXXXXXX",
"XXXXXXXXXXXXXXXX    ........................    XXXXXXXXXXXXXXXX",
"XXXXXXXXXXXXXXXX    ........................    XXXXXXXXXXXXXXXX",
"XXXXXXXXXXXXXXXX    ........................    XXXXXXXXXXXXXXXX",
"XXXXXXXXXXXXXXXX    ........................    XXXXXXXXXXXXXXXX",
"XXXXXXXXXXXX    ................................    XXXXXXXXXXXX",
"XXXXXXXXXXXX    ................................    XXXXXXXXXXXX",
"XXXXXXXXXXXX    ................................    XXXXXXXXXXXX",
"XXXXXXXXXXXX    ................................    XXXXXXXXXXXX",
"XXXXXXXX        oooooooo    oooooooo    oooooooo        XXXXXXXX",
"XXXXXXXX        oooooooo    oooooooo    oooooooo        XXXXXXXX",
"XXXXXXXX        oooooooo    oooooooo    oooooooo        XXXXXXXX",
"XXXXXXXX        oooooooo    oooooooo    oooooooo        XXXXXXXX",
"XXXX    oooo    oooooooo    oooooooo    oooooooo    oooo    XXXX",
"XXXX    oooo    oooooooo    oooooooo    oooooooo    oooo    XXXX",
"XXXX    oooo    oooooooo    oooooooo    oooooooo    oooo    XXXX",
"XXXX    oooo    oooooooo    oooooooo    oooooooo    oooo    XXXX",
"XXXX    oooooooooooo    oooooooooooooooo    oooooooooooo    XXXX",
"XXXX    oooooooooooo    oooooooooooooooo    oooooooooooo    XXXX",
"XXXX    oooooooooooo    oooooooooooooooo    oooooooooooo    XXXX",
"XXXX    oooooooooooo    oooooooooooooooo    oooooooooooo    XXXX",
"XXXXXXXX    oooooooo                        oooooooo    XXXXXXXX",
"XXXXXXXX    oooooooo                        oooooooo    XXXXXXXX",
"XXXXXXXX    oooooooo                        oooooooo    XXXXXXXX",
"XXXXXXXX    oooooooo                        oooooooo    XXXXXXXX",
"XXXXXXXXXXXX        oooooooooooooooooooooooo        XXXXXXXXXXXX",
"XXXXXXXXXXXX        oooooooooooooooooooooooo        XXXXXXXXXXXX",
"XXXXXXXXXXXX        oooooooooooooooooooooooo        XXXXXXXXXXXX",
"XXXXXXXXXXXX        oooooooooooooooooooooooo        XXXXXXXXXXXX",
"XXXXXXXX    oooooooo                        ....    XXXXXXXXXXXX",
"XXXXXXXX    oooooooo                        ....    XXXXXXXXXXXX",
"XXXXXXXX    oooooooo                        ....    XXXXXXXXXXXX",
"XXXXXXXX    oooooooo                        ....    XXXXXXXXXXXX",
"XXXXXXXX    oooooooo    ................    oooooooo    XXXXXXXX",
"XXXXXXXX    oooooooo    ................    oooooooo    XXXXXXXX",
"XXXXXXXX    oooooooo    ................    oooooooo    XXXXXXXX",
"XXXXXXXX    oooooooo    ................    oooooooo    XXXXXXXX",
"XXXXXXXX                    ........        oooooooo    XXXXXXXX",
"XXXXXXXX                    ........        oooooooo    XXXXXXXX",
"XXXXXXXX                    ........        oooooooo    XXXXXXXX",
"XXXXXXXX                    ........        oooooooo    XXXXXXXX",
"XXXXXXXXXXXX            oooo        oooo            XXXXXXXXXXXX",
"XXXXXXXXXXXX            oooo        oooo            XXXXXXXXXXXX",
"XXXXXXXXXXXX            oooo        oooo            XXXXXXXXXXXX",
"XXXXXXXXXXXX            oooo        oooo            XXXXXXXXXXXX",
"XXXXXXXXXXXX                                        XXXXXXXXXXXX",
"XXXXXXXXXXXX                                        XXXXXXXXXXXX",
"XXXXXXXXXXXX                                        XXXXXXXXXXXX",
"XXXXXXXXXXXX                                        XXXXXXXXXXXX",
"XXXXXXXXXXXXXXXX                    ............    XXXXXXXXXXXX",
"XXXXXXXXXXXXXXXX                    ............    XXXXXXXXXXXX",
"XXXXXXXXXXXXXXXX                    ............    XXXXXXXXXXXX",
"XXXXXXXXXXXXXXXX                    ............    XXXXXXXXXXXX",
"XXXXXXXXXXXXXXXX    ............                XXXXXXXXXXXXXXXX",
"XXXXXXXXXXXXXXXX    ............                XXXXXXXXXXXXXXXX",
"XXXXXXXXXXXXXXXX    ............                XXXXXXXXXXXXXXXX",
"XXXXXXXXXXXXXXXX    ............                XXXXXXXXXXXXXXXX",
"XXXXXXXXXXXXXXXXXXXX            XXXXXXXXXXXXXXXXXXXXXXXXXXXXXXXX",
"XXXXXXXXXXXXXXXXXXXX            XXXXXXXXXXXXXXXXXXXXXXXXXXXXXXXX",
"XXXXXXXXXXXXXXXXXXXX            XXXXXXXXXXXXXXXXXXXXXXXXXXXXXXXX",
"XXXXXXXXXXXXXXXXXXXX            XXXXXXXXXXXXXXXXXXXXXXXXXXXXXXXX"
};
