/* XPM */
static char *result[] = {
/* columns rows colors chars-per-pixel */
"64 64 5 1 ",
"  c black",
". c #181B1D",
"X c #D6202D",
"o c #4874EC",
"O c #F9CFA8",
/* pixels */
"oooooooooooooooooooooooooooooooooooooooooooooooooooooooooooooooo",
"oooooooooooooooooooooooooooooooooooooooooooooooooooooooooooooooo",
"oooooooooooooooooooooooooooooooooooooooooooooooooooooooooooooooo",
"oooooooooooooooooooooooooooooooooooooooooooooooooooooooooooooooo",
"oooooooooooooooooooooooo................oooooooooooooooooooooooo",
"oooooooooooooooooooooooo................oooooooooooooooooooooooo",
"oooooooooooooooooooooooo................oooooooooooooooooooooooo",
"oooooooooooooooooooooooo................oooooooooooooooooooooooo",
"oooooooooooooooo........XXXXXXXXXXXXXXXX........oooooooooooooooo",
"oooooooooooooooo........XXXXXXXXXXXXXXXX........oooooooooooooooo",
"oooooooooooooooo........XXXXXXXXXXXXXXXX........oooooooooooooooo",
"oooooooooooooooo........XXXXXXXXXXXXXXXX........oooooooooooooooo",
"oooooooooooo....XXXXXXXXXXXXXXXXXXXXXXXXXXXXXXXX....oooooooooooo",
"oooooooooooo....XXXXXXXXXXXXXXXXXXXXXXXXXXXXXXXX....oooooooooooo",
"oooooooooooo....XXXXXXXXXXXXXXXXXXXXXXXXXXXXXXXX....oooooooooooo",
"oooooooooooo....XXXXXXXXXXXXXXXXXXXXXXXXXXXXXXXX....oooooooooooo",
"oooooooo........XXXXXXXXXXXXXXXXXXXXXXXXXXXXXXXX........oooooooo",
"oooooooo........XXXXXXXXXXXXXXXXXXXXXXXXXXXXXXXX........oooooooo",
"oooooooo........XXXXXXXXXXXXXXXXXXXXXXXXXXXXXXXX........oooooooo",
"oooooooo........XXXXXXXXXXXXXXXXXXXXXXXXXXXXXXXX........oooooooo",
"oooo....OOOO........XXXXXXXXXXXXXXXXXXXXXXXX........OOOO....oooo",
"oooo....OOOO........XXXXXXXXXXXXXXXXXXXXXXXX........OOOO....oooo",
"oooo....OOOO........XXXXXXXXXXXXXXXXXXXXXXXX........OOOO....oooo",
"oooo....OOOO........XXXXXXXXXXXXXXXXXXXXXXXX........OOOO....oooo",
"oooo....OOOOOOOO................................OOOOOOOO....oooo",
"oooo....OOOOOOOO................................OOOOOOOO....oooo",
"oooo....OOOOOOOO................................OOOOOOOO....oooo",
"oooo....OOOOOOOO................................OOOOOOOO....oooo",
"oooooooo....OOOOOOOO........................OOOOOOOO....oooooooo",
"oooooooo....OOOOOOOO........................OOOOOOOO....oooooooo",
"oooooooo....OOOOOOOO........................OOOOOOOO....oooooooo",
"oooooooo....OOOOOOOO........................OOOOOOOO....oooooooo",
"oooooooooooo........OOOOOOOOOOOOOOOOOOOOOOOO....XXXX....oooooooo",
"oooooooooooo........OOOOOOOOOOOOOOOOOOOOOOOO....XXXX....oooooooo",
"oooooooooooo........OOOOOOOOOOOOOOOOOOOOOOOO....XXXX....oooooooo",
"oooooooooooo........OOOOOOOOOOOOOOOOOOOOOOOO....XXXX....oooooooo",
"oooooooooooooooo    ........................XXXXXXXX....oooooooo",
"oooooooooooooooo    ........................XXXXXXXX....oooooooo",
"oooooooooooooooo    ........................XXXXXXXX....oooooooo",
"oooooooooooooooo    ........................XXXXXXXX....oooooooo",
"oooooooooooo    XXXX    XXXXXXXXXXXXXXXX....XXXX....oooooooooooo",
"oooooooooooo    XXXX    XXXXXXXXXXXXXXXX....XXXX....oooooooooooo",
"oooooooooooo    XXXX    XXXXXXXXXXXXXXXX....XXXX....oooooooooooo",
"oooooooooooo    XXXX    XXXXXXXXXXXXXXXX....XXXX....oooooooooooo",
"oooooooooooo    XXXX        XXXXXXXX            oooooooooooooooo",
"oooooooooooo    XXXX        XXXXXXXX            oooooooooooooooo",
"oooooooooooo    XXXX        XXXXXXXX            oooooooooooooooo",
"oooooooooooo    XXXX        XXXXXXXX            oooooooooooooooo",
"oooooooooooooooo                                oooooooooooooooo",
"oooooooooooooooo                                oooooooooooooooo",
"oooooooooooooooo                                oooooooooooooooo",
"oooooooooooooooo                                oooooooooooooooo",
"oooooooooooooooo    XXXXXXXXXXXX                oooooooooooooooo",
"oooooooooooooooo    XXXXXXXXXXXX                oooooooooooooooo",
"oooooooooooooooo    XXXXXXXXXXXX                oooooooooooooooo",
"oooooooooooooooo    XXXXXXXXXXXX                oooooooooooooooo",
"oooooooooooooooooooo            XXXXXXXXXXXX    oooooooooooooooo",
"oooooooooooooooooooo            XXXXXXXXXXXX    oooooooooooooooo",
"oooooooooooooooooooo            XXXXXXXXXXXX    oooooooooooooooo",
"oooooooooooooooooooo            XXXXXXXXXXXX    oooooooooooooooo",
"oooooooooooooooooooooooooooooooo            oooooooooooooooooooo",
"oooooooooooooooooooooooooooooooo            oooooooooooooooooooo",
"oooooooooooooooooooooooooooooooo            oooooooooooooooooooo",
"oooooooooooooooooooooooooooooooo            oooooooooooooooooooo"
};
