/* XPM */
static char *result[] = {
/* columns rows colors chars-per-pixel */
"64 64 4 1 ",
"  c black",
". c #D6202D",
"X c #4874EC",
"o c #F9CFA8",
/* pixels */
"XXXXXXXXXXXXXXXXXXXX                    XXXXXXXXXXXXXXXXXXXXXXXX",
"XXXXXXXXXXXXXXXXXXXX                    XXXXXXXXXXXXXXXXXXXXXXXX",
"XXXXXXXXXXXXXXXXXXXX                    XXXXXXXXXXXXXXXXXXXXXXXX",
"XXXXXXXXXXXXXXXXXXXX                    XXXXXXXXXXXXXXXXXXXXXXXX",
"XXXXXXXXXXXXXXXX    ....................            XXXXXXXXXXXX",
"XXXXXXXXXXXXXXXX    ....................            XXXXXXXXXXXX",
"XXXXXXXXXXXXXXXX    ....................            XXXXXXXXXXXX",
"XXXXXXXXXXXXXXXX    ....................            XXXXXXXXXXXX",
"XXXXXXXXXXXX    ....................................    XXXXXXXX",
"XXXXXXXXXXXX    ....................................    XXXXXXXX",
"XXXXXXXXXXXX    ....................................    XXXXXXXX",
"XXXXXXXXXXXX    ....................................    XXXXXXXX",
"XXXXXXXXXXXX            oooooooo    oooo            XXXXXXXXXXXX",
"XXXXXXXXXXXX            oooooooo    oooo            XXXXXXXXXXXX",
"XXXXXXXXXXXX            oooooooo    oooo            XXXXXXXXXXXX",
"XXXXXXXXXXXX            oooooooo    oooo            XXXXXXXXXXXX",
"XXXXXXXX    oooooooo        oooo    oooooooooooooooo    XXXXXXXX",
"XXXXXXXX    oooooooo        oooo    oooooooooooooooo    XXXXXXXX",
"XXXXXXXX    oooooooo        oooo    oooooooooooooooo    XXXXXXXX",
"XXXXXXXX    oooooooo        oooo    oooooooooooooooo    XXXXXXXX",
"XXXXXXXX    oooooooo        oooooooo    oooooooooooo    XXXXXXXX",
"XXXXXXXX    oooooooo        oooooooo    oooooooooooo    XXXXXXXX",
"XXXXXXXX    oooooooo        oooooooo    oooooooooooo    XXXXXXXX",
"XXXXXXXX    oooooooo        oooooooo    oooooooooooo    XXXXXXXX",
"XXXXXXXXXXXX        oooooooooooo                    XXXXXXXXXXXX",
"XXXXXXXXXXXX        oooooooooooo                    XXXXXXXXXXXX",
"XXXXXXXXXXXX        oooooooooooo                    XXXXXXXXXXXX",
"XXXXXXXXXXXX        oooooooooooo                    XXXXXXXXXXXX",
"XXXX                    oooooooooooooooooooo                    ",
"XXXX                    oooooooooooooooooooo                    ",
"XXXX                    oooooooooooooooooooo                    ",
"XXXX                    oooooooooooooooooooo                    ",
"    oooooooo............        ........    ........oooooooo    ",
"    oooooooo............        ........    ........oooooooo    ",
"    oooooooo............        ........    ........oooooooo    ",
"    oooooooo............        ........    ........oooooooo    ",
"    oooooooo................        ........    ....oooooooo    ",
"    oooooooo................        ........    ....oooooooo    ",
"    oooooooo................        ........    ....oooooooo    ",
"    oooooooo................        ........    ....oooooooo    ",
"XXXX    oooo............                        ....oooo    XXXX",
"XXXX    oooo............                        ....oooo    XXXX",
"XXXX    oooo............                        ....oooo    XXXX",
"XXXX    oooo............                        ....oooo    XXXX",
"XXXXXXXX                        oooo        oooo        XXXXXXXX",
"XXXXXXXX                        oooo        oooo        XXXXXXXX",
"XXXXXXXX                        oooo        oooo        XXXXXXXX",
"XXXXXXXX                        oooo        oooo        XXXXXXXX",
"XXXXXXXXXXXX                                    XXXXXXXXXXXXXXXX",
"XXXXXXXXXXXX                                    XXXXXXXXXXXXXXXX",
"XXXXXXXXXXXX                                    XXXXXXXXXXXXXXXX",
"XXXXXXXXXXXX                                    XXXXXXXXXXXXXXXX",
"XXXXXXXXXXXX        ................            XXXXXXXXXXXXXXXX",
"XXXXXXXXXXXX        ................            XXXXXXXXXXXXXXXX",
"XXXXXXXXXXXX        ................            XXXXXXXXXXXXXXXX",
"XXXXXXXXXXXX        ................            XXXXXXXXXXXXXXXX",
"XXXXXXXXXXXXXXXX    ....................    XXXXXXXXXXXXXXXXXXXX",
"XXXXXXXXXXXXXXXX    ....................    XXXXXXXXXXXXXXXXXXXX",
"XXXXXXXXXXXXXXXX    ....................    XXXXXXXXXXXXXXXXXXXX",
"XXXXXXXXXXXXXXXX    ....................    XXXXXXXXXXXXXXXXXXXX",
"XXXXXXXXXXXXXXXX                            XXXXXXXXXXXXXXXXXXXX",
"XXXXXXXXXXXXXXXX                            XXXXXXXXXXXXXXXXXXXX",
"XXXXXXXXXXXXXXXX                            XXXXXXXXXXXXXXXXXXXX",
"XXXXXXXXXXXXXXXX                            XXXXXXXXXXXXXXXXXXXX"
};
