/* XPM */
static char *result[] = {
/* columns rows colors chars-per-pixel */
"64 64 4 1 ",
"  c black",
". c #D6202D",
"X c #4874EC",
"o c #F9CFA8",
/* pixels */
"XXXXXXXXXXXXXXXXXXXXXXXX                    XXXXXXXXXXXXXXXXXXXX",
"XXXXXXXXXXXXXXXXXXXXXXXX                    XXXXXXXXXXXXXXXXXXXX",
"XXXXXXXXXXXXXXXXXXXXXXXX                    XXXXXXXXXXXXXXXXXXXX",
"XXXXXXXXXXXXXXXXXXXXXXXX                    XXXXXXXXXXXXXXXXXXXX",
"XXXXXXXXXXXX            ....................    XXXXXXXXXXXXXXXX",
"XXXXXXXXXXXX            ....................    XXXXXXXXXXXXXXXX",
"XXXXXXXXXXXX            ....................    XXXXXXXXXXXXXXXX",
"XXXXXXXXXXXX            ....................    XXXXXXXXXXXXXXXX",
"XXXXXXXX    ....................................    XXXXXXXXXXXX",
"XXXXXXXX    ....................................    XXXXXXXXXXXX",
"XXXXXXXX    ....................................    XXXXXXXXXXXX",
"XXXXXXXX    ....................................    XXXXXXXXXXXX",
"XXXXXXXXXXXX            oooo    oooooooo            XXXXXXXXXXXX",
"XXXXXXXXXXXX            oooo    oooooooo            XXXXXXXXXXXX",
"XXXXXXXXXXXX            oooo    oooooooo            XXXXXXXXXXXX",
"XXXXXXXXXXXX            oooo    oooooooo            XXXXXXXXXXXX",
"XXXXXXXX    oooooooooooooooo    oooo        oooooooo    XXXXXXXX",
"XXXXXXXX    oooooooooooooooo    oooo        oooooooo    XXXXXXXX",
"XXXXXXXX    oooooooooooooooo    oooo        oooooooo    XXXXXXXX",
"XXXXXXXX    oooooooooooooooo    oooo        oooooooo    XXXXXXXX",
"XXXXXXXX    oooooooooooo    oooooooo        oooooooo    XXXXXXXX",
"XXXXXXXX    oooooooooooo    oooooooo        oooooooo    XXXXXXXX",
"XXXXXXXX    oooooooooooo    oooooooo        oooooooo    XXXXXXXX",
"XXXXXXXX    oooooooooooo    oooooooo        oooooooo    XXXXXXXX",
"XXXXXXXXXXXX                    oooooooooooo        XXXXXXXXXXXX",
"XXXXXXXXXXXX                    oooooooooooo        XXXXXXXXXXXX",
"XXXXXXXXXXXX                    oooooooooooo        XXXXXXXXXXXX",
"XXXXXXXXXXXX                    oooooooooooo        XXXXXXXXXXXX",
"                    oooooooooooooooooooo                    XXXX",
"                    oooooooooooooooooooo                    XXXX",
"                    oooooooooooooooooooo                    XXXX",
"                    oooooooooooooooooooo                    XXXX",
"    oooooooo........    ........        ............oooooooo    ",
"    oooooooo........    ........        ............oooooooo    ",
"    oooooooo........    ........        ............oooooooo    ",
"    oooooooo........    ........        ............oooooooo    ",
"    oooooooo....    ........        ................oooooooo    ",
"    oooooooo....    ........        ................oooooooo    ",
"    oooooooo....    ........        ................oooooooo    ",
"    oooooooo....    ........        ................oooooooo    ",
"XXXX    oooo....                        ............oooo    XXXX",
"XXXX    oooo....                        ............oooo    XXXX",
"XXXX    oooo....                        ............oooo    XXXX",
"XXXX    oooo....                        ............oooo    XXXX",
"XXXXXXXX        oooo        oooo                        XXXXXXXX",
"XXXXXXXX        oooo        oooo                        XXXXXXXX",
"XXXXXXXX        oooo        oooo                        XXXXXXXX",
"XXXXXXXX        oooo        oooo                        XXXXXXXX",
"XXXXXXXXXXXXXXXX                                    XXXXXXXXXXXX",
"XXXXXXXXXXXXXXXX                                    XXXXXXXXXXXX",
"XXXXXXXXXXXXXXXX                                    XXXXXXXXXXXX",
"XXXXXXXXXXXXXXXX                                    XXXXXXXXXXXX",
"XXXXXXXXXXXXXXXX            ................        XXXXXXXXXXXX",
"XXXXXXXXXXXXXXXX            ................        XXXXXXXXXXXX",
"XXXXXXXXXXXXXXXX            ................        XXXXXXXXXXXX",
"XXXXXXXXXXXXXXXX            ................        XXXXXXXXXXXX",
"XXXXXXXXXXXXXXXXXXXX    ....................    XXXXXXXXXXXXXXXX",
"XXXXXXXXXXXXXXXXXXXX    ....................    XXXXXXXXXXXXXXXX",
"XXXXXXXXXXXXXXXXXXXX    ....................    XXXXXXXXXXXXXXXX",
"XXXXXXXXXXXXXXXXXXXX    ....................    XXXXXXXXXXXXXXXX",
"XXXXXXXXXXXXXXXXXXXX                            XXXXXXXXXXXXXXXX",
"XXXXXXXXXXXXXXXXXXXX                            XXXXXXXXXXXXXXXX",
"XXXXXXXXXXXXXXXXXXXX                            XXXXXXXXXXXXXXXX",
"XXXXXXXXXXXXXXXXXXXX                            XXXXXXXXXXXXXXXX"
};
