/* XPM */
static char *result[] = {
/* columns rows colors chars-per-pixel */
"64 64 4 1 ",
"  c #54440B",
". c #91161F",
"X c #CFA826",
"o c #4874EC",
/* pixels */
"ooooooooooooooooooooooooooooooooooooooooooooooooooooXXXXXXXXXXXX",
"ooooooooooooooooooooooooooooooooooooooooooooooooooooXXXXXXXXXXXX",
"ooooooooooooooooooooooooooooooooooooooooooooooooooooXXXXXXXXXXXX",
"ooooooooooooooooooooooooooooooooooooooooooooooooooooXXXXXXXXXXXX",
"oooooooooooooooooooooooo....................ooooooooXXXXXXXXXXXX",
"oooooooooooooooooooooooo....................ooooooooXXXXXXXXXXXX",
"oooooooooooooooooooooooo....................ooooooooXXXXXXXXXXXX",
"oooooooooooooooooooooooo....................ooooooooXXXXXXXXXXXX",
"oooooooooooooooooooo....................................XXXXXXXX",
"oooooooooooooooooooo....................................XXXXXXXX",
"oooooooooooooooooooo....................................XXXXXXXX",
"oooooooooooooooooooo....................................XXXXXXXX",
"oooooooooooooooooooo            XXXXXXXX    XXXXoooo            ",
"oooooooooooooooooooo            XXXXXXXX    XXXXoooo            ",
"oooooooooooooooooooo            XXXXXXXX    XXXXoooo            ",
"oooooooooooooooooooo            XXXXXXXX    XXXXoooo            ",
"oooooooooooooooo    XXXX    XXXXXXXXXXXX    XXXXXXXX            ",
"oooooooooooooooo    XXXX    XXXXXXXXXXXX    XXXXXXXX            ",
"oooooooooooooooo    XXXX    XXXXXXXXXXXX    XXXXXXXX            ",
"oooooooooooooooo    XXXX    XXXXXXXXXXXX    XXXXXXXX            ",
"oooooooooooooooo    XXXX        XXXXXXXXXXXX    XXXXXXXXXXXX    ",
"oooooooooooooooo    XXXX        XXXXXXXXXXXX    XXXXXXXXXXXX    ",
"oooooooooooooooo    XXXX        XXXXXXXXXXXX    XXXXXXXXXXXX    ",
"oooooooooooooooo    XXXX        XXXXXXXXXXXX    XXXXXXXXXXXX    ",
"oooooooooooooooo        XXXXXXXXXXXXXXXX                    oooo",
"oooooooooooooooo        XXXXXXXXXXXXXXXX                    oooo",
"oooooooooooooooo        XXXXXXXXXXXXXXXX                    oooo",
"oooooooooooooooo        XXXXXXXXXXXXXXXX                    oooo",
"ooooooooooooooooooooooooXXXXXXXXXXXXXXXXXXXXXXXXXXXX    oooooooo",
"ooooooooooooooooooooooooXXXXXXXXXXXXXXXXXXXXXXXXXXXX    oooooooo",
"ooooooooooooooooooooooooXXXXXXXXXXXXXXXXXXXXXXXXXXXX    oooooooo",
"ooooooooooooooooooooooooXXXXXXXXXXXXXXXXXXXXXXXXXXXX    oooooooo",
"oooooooo                    ....            ....    oooooooooooo",
"oooooooo                    ....            ....    oooooooooooo",
"oooooooo                    ....            ....    oooooooooooo",
"oooooooo                    ....            ....    oooooooooooo",
"oooo                            ....            ....oooooooo    ",
"oooo                            ....            ....oooooooo    ",
"oooo                            ....            ....oooooooo    ",
"oooo                            ....            ....oooooooo    ",
"XXXXXXXX                        ....................oooooooo    ",
"XXXXXXXX                        ....................oooooooo    ",
"XXXXXXXX                        ....................oooooooo    ",
"XXXXXXXX                        ....................oooooooo    ",
"XXXXXXXXXXXXoooo........    ........XXXX........XXXX....        ",
"XXXXXXXXXXXXoooo........    ........XXXX........XXXX....        ",
"XXXXXXXXXXXXoooo........    ........XXXX........XXXX....        ",
"XXXXXXXXXXXXoooo........    ........XXXX........XXXX....        ",
"ooooXXXXoooo    ........................................        ",
"ooooXXXXoooo    ........................................        ",
"ooooXXXXoooo    ........................................        ",
"ooooXXXXoooo    ........................................        ",
"oooooooo            ....................................        ",
"oooooooo            ....................................        ",
"oooooooo            ....................................        ",
"oooooooo            ....................................        ",
"oooo            ............................oooooooooooooooooooo",
"oooo            ............................oooooooooooooooooooo",
"oooo            ............................oooooooooooooooooooo",
"oooo            ............................oooooooooooooooooooo",
"oooo    oooooooo................oooooooooooooooooooooooooooooooo",
"oooo    oooooooo................oooooooooooooooooooooooooooooooo",
"oooo    oooooooo................oooooooooooooooooooooooooooooooo",
"oooo    oooooooo................oooooooooooooooooooooooooooooooo"
};
